<svg width="18" height="24" viewBox="0 0 18 24" fill="none" xmlns="http://www.w3.org/2000/svg">
<path d="M2.00803e-07 2.99951V23.2495C-9.50907e-05 23.3798 0.0337268 23.5078 0.0981369 23.621C0.162547 23.7342 0.255325 23.8286 0.367338 23.8951C0.47935 23.9615 0.606737 23.9977 0.736957 23.9999C0.867178 24.0022 0.995744 23.9705 1.11 23.908L9 19.603L16.89 23.908C17.0043 23.9705 17.1328 24.0022 17.263 23.9999C17.3933 23.9977 17.5207 23.9615 17.6327 23.8951C17.7447 23.8286 17.8375 23.7342 17.9019 23.621C17.9663 23.5078 18.0001 23.3798 18 23.2495V2.99951C18 2.20386 17.6839 1.4408 17.1213 0.878191C16.5587 0.315582 15.7956 -0.000488281 15 -0.000488281L3 -0.000488281C2.20435 -0.000488281 1.44129 0.315582 0.87868 0.878191C0.316071 1.4408 2.00803e-07 2.20386 2.00803e-07 2.99951Z" fill="#EEEEEE"/>
</svg>
